<svg xmlns="http://www.w3.org/2000/svg">
<defs>
<font id="Vogue-Italic" horiz-adv-x="532" >
  <font-face 
    font-family="Vogue"
    font-weight="400"
    font-style="italic"
    font-stretch="normal"
    units-per-em="1000"
    panose-1="0 0 5 0 0 0 0 0 0 0"
    ascent="800"
    descent="-200"
    x-height="750"
    cap-height="750"
    bbox="-266 -149 881 861"
    underline-thickness="50"
    underline-position="-200"
    unicode-range="U+0020-2212"
  />
<missing-glyph horiz-adv-x="666" 
d="M177 732h550l-114 -722h-550zM578 49l101 639h-468l-101 -639h468zM555 644h45l-170 -234l96 -234h-45l-83 202l-149 -202h-45l172 234l-98 234h45l85 -201zM492 112q-4 -1 -4 -6q-1 -4 2 -6q1 -2 6 -2q7 0 11 2l3 -2q-6 -6 -15 -6q-5 0 -11 3q-1 1 -5 9q0 2 6 11
q8 5 14 5q8 0 13 -5l-3 -3l-2 1l-2 1q0 1 -5 1h-2q-4 -1 -6 -3zM153 93l4 26h26l-1 -4h-16l-1 -7h14l-1 -5h-14l-1 -10h-10zM212 119q12 0 16 -6q3 -7 0 -13q-5 -7 -15 -8l-6 -1q-2 0 -6 2q-9 3 -9 11q2 9 7 11q5 4 13 4zM268 101l3 18h6l-4 -26h-1q-1 -1 -3 -1l-1 1l-4 2
l-1 1q-1 2 -2 2q-2 3 -3 4q-1 3 -5 7l-2 -16h-8l4 26h6q3 0 3 -3q6 -6 6 -7q2 -2 3.5 -4.5t2.5 -3.5zM292 115l1 4h28l-1 -4h-11l-3 -22h-6l3 22h-11zM388 115q-3 0 -3 -2t2 -4q7 0 8 -3q6 0 6 -6t-8 -7q0 -1 -5 -1q-8 0 -16 4l2 2q0 1 1 2l11 -2h4h3q0 4 -8 6q0 -1 -2 0
q1 1 -1 1q-6 2 -5 7q-1 3 5 6q3 1 8 1q11 0 14 -2l-4 -4h-3h-1l-1 1q-2 0 -3 1h-4zM415 115l1 4h29l-1 -4h-11l-3 -22h-8l3 22h-10zM454 93l4 26h8l-4 -26h-8zM552 106q0 -1 1.5 -3.5t1.5 -3.5q0 -3 3 -6h-8l-2 5h-16l-5 -5h-6q10 11 17 26h9zM358 99q-2 -4 2 -6h-8v2l-1 1
q-1 1 -1 2h-15q-2 0 -2 -3v-1q-1 0 -3 -1h-6l18 25h8q0 -4 2 -5q3 -2 3 -7q0 -1 1.5 -3t1.5 -4zM221 106q0 6 -2 7q-2 2 -8 2q0 -1 -3 -1l-6 -4q-2 -1 -3 -3.5t1 -3.5q1 -6 8 -6q3 0 5 1q6 0 8 7v1zM337 103q9 0 11 2l-2 3q0 2 1 3q-1 0 -2 1l-1 1zM534 103q9 0 11 2
q0 3 -1 3v1v1v1q-1 0 -2 1l-1 1z" />
    <glyph glyph-name=".notdef" horiz-adv-x="666" 
d="M177 732h550l-114 -722h-550zM578 49l101 639h-468l-101 -639h468zM555 644h45l-170 -234l96 -234h-45l-83 202l-149 -202h-45l172 234l-98 234h45l85 -201zM492 112q-4 -1 -4 -6q-1 -4 2 -6q1 -2 6 -2q7 0 11 2l3 -2q-6 -6 -15 -6q-5 0 -11 3q-1 1 -5 9q0 2 6 11
q8 5 14 5q8 0 13 -5l-3 -3l-2 1l-2 1q0 1 -5 1h-2q-4 -1 -6 -3zM153 93l4 26h26l-1 -4h-16l-1 -7h14l-1 -5h-14l-1 -10h-10zM212 119q12 0 16 -6q3 -7 0 -13q-5 -7 -15 -8l-6 -1q-2 0 -6 2q-9 3 -9 11q2 9 7 11q5 4 13 4zM268 101l3 18h6l-4 -26h-1q-1 -1 -3 -1l-1 1l-4 2
l-1 1q-1 2 -2 2q-2 3 -3 4q-1 3 -5 7l-2 -16h-8l4 26h6q3 0 3 -3q6 -6 6 -7q2 -2 3.5 -4.5t2.5 -3.5zM292 115l1 4h28l-1 -4h-11l-3 -22h-6l3 22h-11zM388 115q-3 0 -3 -2t2 -4q7 0 8 -3q6 0 6 -6t-8 -7q0 -1 -5 -1q-8 0 -16 4l2 2q0 1 1 2l11 -2h4h3q0 4 -8 6q0 -1 -2 0
q1 1 -1 1q-6 2 -5 7q-1 3 5 6q3 1 8 1q11 0 14 -2l-4 -4h-3h-1l-1 1q-2 0 -3 1h-4zM415 115l1 4h29l-1 -4h-11l-3 -22h-8l3 22h-10zM454 93l4 26h8l-4 -26h-8zM552 106q0 -1 1.5 -3.5t1.5 -3.5q0 -3 3 -6h-8l-2 5h-16l-5 -5h-6q10 11 17 26h9zM358 99q-2 -4 2 -6h-8v2l-1 1
q-1 1 -1 2h-15q-2 0 -2 -3v-1q-1 0 -3 -1h-6l18 25h8q0 -4 2 -5q3 -2 3 -7q0 -1 1.5 -3t1.5 -4zM221 106q0 6 -2 7q-2 2 -8 2q0 -1 -3 -1l-6 -4q-2 -1 -3 -3.5t1 -3.5q1 -6 8 -6q3 0 5 1q6 0 8 7v1zM337 103q9 0 11 2l-2 3q0 2 1 3q-1 0 -2 1l-1 1zM534 103q9 0 11 2
q0 3 -1 3v1v1v1q-1 0 -2 1l-1 1z" />
    <glyph glyph-name=".null" horiz-adv-x="0" 
 />
    <glyph glyph-name="nonmarkingreturn" horiz-adv-x="333" 
 />
    <glyph glyph-name="space" unicode=" " horiz-adv-x="386" 
 />
    <glyph glyph-name="exclam" unicode="!" horiz-adv-x="190" 
d="M260 750h-89l-88 -612h71zM55 44q-3 -15 6.5 -29.5t33.5 -14.5q48 0 56 44l1 8q3 16 -6.5 29.5t-32.5 13.5q-24 0 -39 -12.5t-18 -30.5z" />
    <glyph glyph-name="numbersign" unicode="#" horiz-adv-x="689" 
d="M589 448h97l36 74h-96l78 150h-82l-77 -150h-120l76 150h-80l-76 -150h-98l-39 -74h99l-93 -181h-99l-36 -72h98l-77 -151h81l78 151h118l-76 -151h80l77 151h97l37 72h-97zM508 448l-93 -181h-120l91 181h122z" />
    <glyph glyph-name="dollar" unicode="$" 
d="M567 531l20 128q6 34 -13.5 62.5t-65.5 28.5h-83l17 111h-81l-17 -111h-84q-45 0 -74 -29t-34 -62l-36 -229q-5 -33 14.5 -61.5t64.5 -28.5h221q24 0 31 -10t3 -34l-29 -180q-3 -23 -13.5 -33.5t-34.5 -10.5h-192q-24 0 -31 10t-4 34l18 113h-80l-22 -138
q-5 -34 14.5 -62.5t64.5 -28.5h84l-14 -91h81l14 91h83q46 0 74.5 28t33.5 63l37 230q5 34 -15 62.5t-65 28.5h-219q-25 0 -32 10t-3 34l28 176q4 24 14 34t35 10h192q24 0 31 -10t3 -34l-16 -101h80z" />
    <glyph glyph-name="percent" unicode="%" horiz-adv-x="583" 
d="M562 750l-509 -750h75l510 750h-76zM190 503h112q31 0 49.5 20t21.5 42l20 122q3 22 -9 42.5t-43 20.5h-112q-30 0 -49 -20.5t-23 -42.5l-20 -122q-3 -22 10 -42t43 -20zM292 566h-74q-16 0 -13 18l14 84q3 20 18 20h74q18 0 15 -20l-14 -84q-3 -18 -20 -18zM362 2h111
q31 0 49.5 20t22.5 42l19 122q4 22 -8.5 41.5t-43.5 19.5h-111q-31 0 -50 -19.5t-23 -41.5l-19 -122q-4 -23 9 -42.5t44 -19.5zM464 64h-75q-14 0 -11 19l13 83q4 20 17 20h75q16 0 12 -20l-13 -83q-3 -19 -18 -19z" />
    <glyph glyph-name="ampersand" unicode="&#x26;" horiz-adv-x="571" 
d="M577 340l11 72h-40l11 68h-80l-11 -68h-233q-23 0 -31 10.5t-4 32.5l28 177q4 24 14 34t35 10h313l12 74h-342q-45 0 -74 -29t-34 -62l-34 -217q-7 -44 23 -65q-37 -22 -44 -67l-35 -219q-5 -34 14.5 -62.5t64.5 -28.5h248q46 0 74.5 28t33.5 63l40 249h40zM224 340h233
l-36 -224q-3 -23 -13.5 -33.5t-34.5 -10.5h-192q-24 0 -31 10t-4 34l29 181q7 43 49 43z" />
    <glyph glyph-name="parenleft" unicode="(" horiz-adv-x="249" 
d="M71 129l-6 -38q-5 -34 14.5 -62.5t64.5 -28.5h56l11 72h-14q-41 0 -47 15q-1 3 -3 23q3 14 6 33l1 9h-2l70 444h2l2 11q4 25 5 33q7 17 10 21q8 15 52 15h14l12 74h-56q-45 0 -74 -29t-34 -62l-5 -36h-3l-79 -494h3z" />
    <glyph glyph-name="parenright" unicode=")" horiz-adv-x="249" 
d="M296 623l5 36q5 33 -14.5 62t-63.5 29h-56l-12 -74h13q43 0 50 -15q3 -7 0 -21q0 -3 -5 -33l-2 -11h3l-70 -444h-3l-1 -9q-4 -28 -6 -33q-1 -15 -7 -23q-13 -15 -55 -15h-13l-11 -72h56q44 0 73 28.5t34 62.5l6 38h3l79 494h-3z" />
    <glyph glyph-name="asterisk" unicode="*" horiz-adv-x="462" 
d="M133 537l124 1l-78 -120l62 -30l68 109l30 -109l74 29l-41 121l126 -1l11 68l-126 -1l79 120l-65 30l-65 -111l-33 111l-71 -30l40 -120l-124 1z" />
    <glyph glyph-name="plus" unicode="+" horiz-adv-x="572" 
d="M379 342h199l12 72h-199l32 204h-77l-32 -204h-200l-12 -72h200l-33 -209h77z" />
    <glyph glyph-name="comma" unicode="," horiz-adv-x="222" 
d="M198 136h-83l-82 -229h74z" />
    <glyph glyph-name="hyphen" unicode="-" horiz-adv-x="334" 
d="M351 412h-238l-11 -72h238z" />
    <glyph glyph-name="period" unicode="." horiz-adv-x="190" 
d="M55 44q-3 -15 6.5 -29.5t33.5 -14.5q48 0 56 44l1 8q3 16 -6.5 29.5t-32.5 13.5q-24 0 -39 -12.5t-18 -30.5z" />
    <glyph glyph-name="slash" unicode="/" horiz-adv-x="395" 
d="M465 750h-80l-337 -750h81z" />
    <glyph glyph-name="zero" unicode="0" 
d="M587 659q6 34 -13.5 62.5t-65.5 28.5h-248q-45 0 -74 -29t-34 -62l-90 -568q-5 -34 14.5 -62.5t64.5 -28.5h248q46 0 74.5 28t33.5 63zM469 676q24 0 31 -10t3 -34l-82 -516q-3 -23 -13.5 -33.5t-34.5 -10.5h-192q-24 0 -31 10t-4 34l82 516q4 24 14 34t35 10h192z" />
    <glyph glyph-name="one" unicode="1" horiz-adv-x="275" 
d="M333 676q4 30 -10 52t-54 22h-101l-12 -74h76q13 0 16 -4.5t1 -18.5l-103 -653h80z" />
    <glyph glyph-name="two" unicode="2" 
d="M587 659q6 34 -14 62.5t-65 28.5h-248q-45 0 -74 -29t-34 -62l-28 -180h80l24 153q4 24 14 34t34 10h192q25 0 32 -10t3 -34l-34 -218q-4 -24 -14.5 -34.5t-35.5 -10.5h-220q-45 0 -73.5 -28.5t-33.5 -61.5l-44 -279h435l36 225h-80l-25 -153h-275l29 180q4 25 14 35.5
t34 10.5h220q46 0 74.5 28t34.5 63z" />
    <glyph glyph-name="three" unicode="3" 
d="M510 377q36 21 43 65l34 217q6 34 -14 62.5t-65 28.5h-248q-45 0 -74 -29t-34 -62l-28 -180h78l26 153q5 25 15 34.5t34 9.5h192q24 0 31 -10t3 -34l-28 -177q-7 -43 -49 -43h-180l-11 -72h180q24 0 31.5 -10t3.5 -33l-29 -181q-3 -23 -13.5 -33.5t-34.5 -10.5h-192
q-24 0 -30.5 10t-4.5 34l23 154h-78l-29 -179q-5 -34 14.5 -62.5t64.5 -28.5h248q45 0 74 28.5t34 62.5l35 219q7 44 -22 67z" />
    <glyph glyph-name="four" unicode="4" horiz-adv-x="545" 
d="M418 0h78l119 750h-78l-74 -463h-288l224 463h-84l-221 -469q-1 -2 -1 -4q0 -1 -0.5 -3t-0.5 -4l-3 -17q-4 -26 -4 -28l-2 -11h369z" />
    <glyph glyph-name="five" unicode="5" 
d="M277 676h312l12 74h-341q-45 0 -74 -29t-34 -62l-36 -229q-5 -33 14.5 -61.5t64.5 -28.5h221q24 0 31 -10t3 -34l-29 -180q-3 -23 -13.5 -33.5t-34.5 -10.5h-192q-25 0 -32 10t-3 34l26 162h-80l-30 -187q-5 -34 14.5 -62.5t64.5 -28.5h248q45 0 74 28.5t34 62.5l37 230
q5 34 -15 62.5t-65 28.5h-219q-25 0 -32 10t-3 34l28 176q4 24 14 34t35 10z" />
    <glyph glyph-name="six" unicode="6" 
d="M508 750h-248q-45 0 -74 -29t-34 -62l-90 -568q-5 -34 14.5 -62.5t64.5 -28.5h248q45 0 74 28.5t34 62.5l40 253q6 34 -14 63t-65 29h-223q-21 0 -39 -9l32 205q4 24 14 34t35 10h192q24 0 31 -10t3 -34l-23 -146h80l27 173q6 34 -14 62.5t-65 28.5zM225 363h194
q24 0 31 -10t4 -34l-33 -203q-3 -23 -13.5 -33.5t-34.5 -10.5h-192q-25 0 -32 10t-3 34l33 207q7 40 46 40z" />
    <glyph glyph-name="seven" unicode="7" horiz-adv-x="546" 
d="M617 750h-450l-31 -192h80l19 118h287l-324 -676h84l324 683q0 2 1 4q0 4 1 6q0 2 1 8t1 9q5 22 5 29z" />
    <glyph glyph-name="eight" unicode="8" 
d="M508 750h-248q-45 0 -74 -29t-34 -62l-34 -217q-7 -44 23 -65q-37 -22 -44 -67l-35 -219q-5 -34 14.5 -62.5t64.5 -28.5h248q46 0 74.5 28t33.5 63l35 219q7 44 -22 67q37 22 43 65l34 217q6 34 -13.5 62.5t-65.5 28.5zM503 632l-28 -177q-7 -43 -49 -43h-191
q-23 0 -31 10.5t-4 32.5l28 177q4 24 14 34t35 10h192q24 0 31 -10t3 -34zM450 297l-29 -181q-3 -23 -13.5 -33.5t-34.5 -10.5h-192q-24 0 -31 10t-4 34l29 181q7 43 49 43h191q24 0 31.5 -10t3.5 -33z" />
    <glyph glyph-name="nine" unicode="9" 
d="M142 0h248q45 0 73.5 28.5t33.5 62.5l90 568q5 34 -14 62.5t-64 28.5h-248q-45 0 -74 -28t-35 -63l-40 -254q-5 -35 15 -63.5t65 -28.5h223q21 0 39 10l-33 -207q-4 -24 -14 -34t-35 -10h-192q-24 0 -30.5 10t-3.5 34l24 148h-80l-28 -173q-5 -34 15 -62.5t65 -28.5z
M424 385h-194q-24 0 -31 10.5t-3 34.5l32 202q4 24 14 34t34 10h192q25 0 32 -10t3 -34l-32 -205q-3 -18 -15.5 -30t-31.5 -12z" />
    <glyph glyph-name="colon" unicode=":" horiz-adv-x="191" 
d="M129 514q-2 -16 7.5 -29.5t33.5 -13.5t38.5 13t16.5 30l2 9q3 15 -7.5 28.5t-32.5 13.5q-24 0 -39 -12t-17 -30zM66 105q-3 -16 6.5 -29.5t33.5 -13.5t38.5 12.5t17.5 30.5l1 8q3 15 -6.5 28.5t-31.5 13.5q-25 0 -40.5 -12t-17.5 -30z" />
    <glyph glyph-name="semicolon" unicode=";" horiz-adv-x="222" 
d="M156 473q9 -20 36 -20q24 0 39 13t18 30q2 21 -4 31q-7 19 -35 19q-25 0 -40 -12t-17 -30q-4 -18 3 -31zM196 136h-81l-82 -229h76z" />
    <glyph glyph-name="less" unicode="&#x3c;" horiz-adv-x="371" 
d="M113 413l-11 -70l236 -242l16 98l-174 179l230 177l16 99z" />
    <glyph glyph-name="equal" unicode="=" horiz-adv-x="451" 
d="M486 525h-355l-11 -72h355zM449 291h-355l-12 -74h355z" />
    <glyph glyph-name="greater" unicode="&#x3e;" horiz-adv-x="371" 
d="M310 378l-230 -179l-16 -98l311 242l11 70l-234 241l-16 -99z" />
    <glyph glyph-name="question" unicode="?" 
d="M587 659q5 34 -14 62.5t-64 28.5h-249q-45 0 -74 -29t-34 -62l-20 -128h80l16 101q4 24 14 34t35 10h192q24 0 31 -10t3 -34l-32 -202q-6 -35 -24 -41q-13 -4 -28 -5h-41q-46 0 -74 -27.5t-33 -61.5l-26 -162h77l21 135q4 25 14 35t34 10h49q46 0 74 28t33 63zM317 52
q3 16 -6.5 29.5t-33.5 13.5t-38 -12.5t-17 -30.5l-1 -8q-3 -16 6 -30t33 -14t38.5 13t17.5 31z" />
    <glyph glyph-name="at" unicode="@" horiz-adv-x="554" 
d="M132 0h374l10 62h-362q-28 0 -23 33l57 362q6 31 33 31h266q29 0 23 -31l-39 -249q-2 -13 -15 -13q-4 0 -12 -0.5t-11 -0.5q-9 0 -13 2q-8 0 -5 16l33 209h-147q-29 0 -48 -17t-22 -39l-29 -180q-3 -21 10.5 -38t42.5 -17h69q26 0 45 16q16 -16 39 -16h52q34 0 53.5 21.5
t23.5 46.5l44 273q4 30 -14 55t-58 25h-290q-41 0 -66.5 -25t-29.5 -55l-62 -390q-5 -30 12.5 -55.5t58.5 -25.5zM330 195h-47q-11 0 -9 13l21 135q2 14 14 14h61l-23 -145q-3 -17 -17 -17z" />
    <glyph glyph-name="A" unicode="A" horiz-adv-x="617" 
d="M457 176l27 -176h84l-99 750h-84l-337 -750h84l81 176h244zM449 247h-205l162 376z" />
    <glyph glyph-name="B" unicode="B" horiz-adv-x="531" 
d="M508 750h-341l-119 -750h341q45 0 74 28.5t34 62.5l35 219q7 44 -22 67q37 22 43 65l34 217q6 34 -14 62.5t-65 28.5zM503 632l-28 -177q-7 -43 -49 -43h-233l42 264h233q25 0 32 -10t3 -34zM450 297l-29 -181q-3 -23 -13.5 -33.5t-35.5 -10.5h-233l43 268h233
q24 0 31.5 -10t3.5 -33z" />
    <glyph glyph-name="C" unicode="C" horiz-adv-x="535" 
d="M590 659q6 35 -13 63t-65 28h-252q-45 0 -74 -29t-34 -62l-90 -568q-5 -34 14.5 -62.5t64.5 -28.5h252q45 0 73.5 28t33.5 63l29 179h-79l-25 -154q-3 -23 -13.5 -33.5t-35.5 -10.5h-195q-24 0 -31 10t-4 34l82 516q4 24 14 34t35 10h195q25 0 32 -10t3 -34l-24 -153h79z
" />
    <glyph glyph-name="D" unicode="D" horiz-adv-x="531" 
d="M587 659q6 34 -14 62.5t-65 28.5h-341l-119 -750h341q45 0 74 28.5t34 62.5zM468 676q25 0 32 -10t3 -34l-82 -516q-3 -23 -13.5 -33.5t-35.5 -10.5h-233l96 604h233z" />
    <glyph glyph-name="E" unicode="E" horiz-adv-x="487" 
d="M193 412l42 264h310l12 74h-390l-119 -750h390l11 72h-310l43 268h189l11 72h-189z" />
    <glyph glyph-name="F" unicode="F" horiz-adv-x="487" 
d="M193 412l42 264h310l12 74h-390l-119 -750h80l54 340h189l11 72h-189z" />
    <glyph glyph-name="G" unicode="G" horiz-adv-x="535" 
d="M181 72q-24 0 -31 10t-4 34l82 516q4 24 14 34t35 10h195q25 0 32 -10t3 -34l-24 -153h79l28 180q6 35 -13 63t-65 28h-252q-45 0 -74 -29t-34 -62l-90 -568q-5 -34 14.5 -62.5t64.5 -28.5h252q45 0 73.5 28t33.5 63l51 321h-210l-11 -72h131l-36 -224
q-3 -23 -13.5 -33.5t-35.5 -10.5h-195z" />
    <glyph glyph-name="H" unicode="H" 
d="M484 0l119 750h-79l-54 -338h-277l54 338h-80l-119 -750h80l54 340h277l-54 -340h79z" />
    <glyph glyph-name="I" unicode="I" horiz-adv-x="177" 
d="M247 750h-80l-119 -750h80z" />
    <glyph glyph-name="J" unicode="J" horiz-adv-x="535" 
d="M513 750h-346l-12 -74h317q25 0 32 -10t3 -34l-82 -516q-3 -23 -13.5 -33.5t-35.5 -10.5h-195q-25 0 -32.5 10t-4.5 34l25 154h-78l-29 -179q-5 -35 14.5 -63t64.5 -28h253q45 0 73 28.5t33 62.5l90 568q5 33 -14 62t-63 29z" />
    <glyph glyph-name="K" unicode="K" horiz-adv-x="528" 
d="M369 375l230 375h-85l-207 -338h-114l54 338h-80l-119 -750h80l54 340h114l99 -340h85z" />
    <glyph glyph-name="L" unicode="L" horiz-adv-x="469" 
d="M422 0l11 72h-294l108 678h-80l-119 -750h374z" />
    <glyph glyph-name="M" unicode="M" horiz-adv-x="670" 
d="M544 0h79l119 750h-104l-281 -613l-86 613h-104l-119 -750h80l90 569l80 -569h75l262 574z" />
    <glyph glyph-name="N" unicode="N" horiz-adv-x="537" 
d="M488 0l119 750h-78l-94 -591l-182 591h-86l-119 -750h80l92 581l177 -581h91z" />
    <glyph glyph-name="O" unicode="O" 
d="M587 659q6 34 -13.5 62.5t-65.5 28.5h-248q-45 0 -74 -29t-34 -62l-90 -568q-5 -34 14.5 -62.5t64.5 -28.5h248q46 0 74.5 28t33.5 63zM469 676q24 0 31 -10t3 -34l-82 -516q-3 -23 -13.5 -33.5t-34.5 -10.5h-192q-24 0 -31 10t-4 34l82 516q4 24 14 34t35 10h192z" />
    <glyph glyph-name="P" unicode="P" horiz-adv-x="506" 
d="M484 750h-317l-119 -750h80l46 293h237q45 0 73.5 28t34.5 62l43 276q5 34 -14 62.5t-64 28.5zM478 632l-35 -223q-4 -24 -14 -34.5t-34 -10.5h-209l49 312h209q24 0 31 -10t3 -34z" />
    <glyph glyph-name="Q" unicode="Q" 
d="M587 659q6 34 -13.5 62.5t-65.5 28.5h-248q-45 0 -74 -29t-34 -62l-90 -568q-5 -34 14.5 -62.5t64.5 -28.5l177 1l28 -96h86l-29 96q39 4 64.5 31.5t29.5 58.5zM382 73l-22 74h-84l21 -75h-116q-24 0 -31 10t-4 34l82 516q4 24 14 34t35 10h192q24 0 31 -10t3 -34
l-82 -516q-3 -21 -11.5 -31t-27.5 -12z" />
    <glyph glyph-name="R" unicode="R" horiz-adv-x="540" 
d="M516 750h-349l-119 -750h80l51 322h241q43 0 35 -42l-44 -280h79l46 293q8 44 -21 66q36 22 42 66l37 234q6 35 -13 63t-65 28zM511 632l-31 -195q-6 -43 -49 -43h-241l45 282h241q25 0 32 -10t3 -34z" />
    <glyph glyph-name="S" unicode="S" 
d="M587 659q6 34 -13.5 62.5t-65.5 28.5h-248q-45 0 -74 -29t-34 -62l-36 -229q-5 -33 14.5 -61.5t64.5 -28.5h221q24 0 31 -10t3 -34l-29 -180q-3 -23 -13.5 -33.5t-34.5 -10.5h-192q-24 0 -31 10t-4 34l26 162h-80l-30 -187q-5 -34 14.5 -62.5t64.5 -28.5h248
q46 0 74.5 28t33.5 63l37 230q5 34 -15 62.5t-65 28.5h-219q-25 0 -32 10t-3 34l28 176q4 24 14 34t35 10h192q24 0 31 -10t3 -34l-23 -146h80z" />
    <glyph glyph-name="T" unicode="T" horiz-adv-x="541" 
d="M417 676h182l12 74h-444l-12 -74h181l-107 -676h81z" />
    <glyph glyph-name="U" unicode="U" horiz-adv-x="531" 
d="M497 91l105 659h-80l-101 -634q-3 -23 -13.5 -33.5t-35.5 -10.5h-192q-24 0 -30.5 10t-3.5 34l101 634h-80l-105 -659q-5 -35 14.5 -63t64.5 -28h248q45 0 74 28.5t34 62.5z" />
    <glyph glyph-name="V" unicode="V" horiz-adv-x="617" 
d="M350 0l337 750h-84l-276 -625l-76 625h-84l99 -750h84z" />
    <glyph glyph-name="W" unicode="W" horiz-adv-x="798" 
d="M616 0l252 750h-83l-197 -599l-34 599h-72l-225 -601l-6 601h-84l14 -750h97l210 561l31 -561h97z" />
    <glyph glyph-name="X" unicode="X" horiz-adv-x="553" 
d="M506 0l-121 375l240 375h-88l-188 -296l-94 296h-88l121 -375l-240 -375h88l188 295l94 -295h88z" />
    <glyph glyph-name="Y" unicode="Y" horiz-adv-x="628" 
d="M276 0l2 11l33 209l-144 530h86l113 -427l245 427h88l-310 -526l-33 -213l-2 -11h-78z" />
    <glyph glyph-name="Z" unicode="Z" horiz-adv-x="547" 
d="M602 676h4l12 74h-446l-12 -74h348l-449 -608l-11 -68h450l11 72h-357z" />
    <glyph glyph-name="bracketleft" unicode="[" horiz-adv-x="311" 
d="M160 72q-13 0 -16 5t-1 20l88 556q2 14 7 18.5t18 4.5h113l12 74h-138q-39 0 -61.5 -22t-26.5 -52l-96 -604q-4 -29 11 -50.5t54 -21.5h138l11 72h-113z" />
    <glyph glyph-name="backslash" unicode="\" horiz-adv-x="396" 
d="M167 750l99 -750h81l-99 750h-81z" />
    <glyph glyph-name="bracketright" unicode="]" horiz-adv-x="310" 
d="M369 676q5 29 -9 51.5t-53 22.5h-140l-12 -74h114q13 0 16.5 -4.5t1.5 -18.5l-88 -556q-2 -15 -7.5 -20t-18.5 -5h-114l-11 -72h140q39 0 59.5 21.5t25.5 50.5z" />
    <glyph glyph-name="underscore" unicode="_" horiz-adv-x="501" 
d="M465 72h-406l-11 -72h406z" />
    <glyph glyph-name="a" unicode="a" horiz-adv-x="617" 
d="M457 176l27 -176h84l-99 750h-84l-337 -750h84l81 176h244zM449 247h-205l162 376z" />
    <glyph glyph-name="b" unicode="b" horiz-adv-x="531" 
d="M508 750h-341l-119 -750h341q45 0 74 28.5t34 62.5l35 219q7 44 -22 67q37 22 43 65l34 217q6 34 -14 62.5t-65 28.5zM503 632l-28 -177q-7 -43 -49 -43h-233l42 264h233q25 0 32 -10t3 -34zM450 297l-29 -181q-3 -23 -13.5 -33.5t-35.5 -10.5h-233l43 268h233
q24 0 31.5 -10t3.5 -33z" />
    <glyph glyph-name="c" unicode="c" horiz-adv-x="535" 
d="M590 659q6 35 -13 63t-65 28h-252q-45 0 -74 -29t-34 -62l-90 -568q-5 -34 14.5 -62.5t64.5 -28.5h252q45 0 73.5 28t33.5 63l29 179h-79l-25 -154q-3 -23 -13.5 -33.5t-35.5 -10.5h-195q-24 0 -31 10t-4 34l82 516q4 24 14 34t35 10h195q25 0 32 -10t3 -34l-24 -153h79z
" />
    <glyph glyph-name="d" unicode="d" horiz-adv-x="531" 
d="M587 659q6 34 -14 62.5t-65 28.5h-341l-119 -750h341q45 0 74 28.5t34 62.5zM468 676q25 0 32 -10t3 -34l-82 -516q-3 -23 -13.5 -33.5t-35.5 -10.5h-233l96 604h233z" />
    <glyph glyph-name="e" unicode="e" horiz-adv-x="487" 
d="M193 412l42 264h310l12 74h-390l-119 -750h390l11 72h-310l43 268h189l11 72h-189z" />
    <glyph glyph-name="f" unicode="f" horiz-adv-x="487" 
d="M193 412l42 264h310l12 74h-390l-119 -750h80l54 340h189l11 72h-189z" />
    <glyph glyph-name="g" unicode="g" horiz-adv-x="535" 
d="M181 72q-24 0 -31 10t-4 34l82 516q4 24 14 34t35 10h195q25 0 32 -10t3 -34l-24 -153h79l28 180q6 35 -13 63t-65 28h-252q-45 0 -74 -29t-34 -62l-90 -568q-5 -34 14.5 -62.5t64.5 -28.5h252q45 0 73.5 28t33.5 63l51 321h-210l-11 -72h131l-36 -224
q-3 -23 -13.5 -33.5t-35.5 -10.5h-195z" />
    <glyph glyph-name="h" unicode="h" 
d="M484 0l119 750h-79l-54 -338h-277l54 338h-80l-119 -750h80l54 340h277l-54 -340h79z" />
    <glyph glyph-name="i" unicode="i" horiz-adv-x="177" 
d="M247 750h-80l-119 -750h80z" />
    <glyph glyph-name="j" unicode="j" horiz-adv-x="535" 
d="M513 750h-346l-12 -74h317q25 0 32 -10t3 -34l-82 -516q-3 -23 -13.5 -33.5t-35.5 -10.5h-195q-25 0 -32.5 10t-4.5 34l25 154h-78l-29 -179q-5 -35 14.5 -63t64.5 -28h253q45 0 73 28.5t33 62.5l90 568q5 33 -14 62t-63 29z" />
    <glyph glyph-name="k" unicode="k" horiz-adv-x="528" 
d="M369 375l230 375h-85l-207 -338h-114l54 338h-80l-119 -750h80l54 340h114l99 -340h85z" />
    <glyph glyph-name="l" unicode="l" horiz-adv-x="469" 
d="M422 0l11 72h-294l108 678h-80l-119 -750h374z" />
    <glyph glyph-name="m" unicode="m" horiz-adv-x="670" 
d="M544 0h79l119 750h-104l-281 -613l-86 613h-104l-119 -750h80l90 569l80 -569h75l262 574z" />
    <glyph glyph-name="n" unicode="n" horiz-adv-x="537" 
d="M488 0l119 750h-78l-94 -591l-182 591h-86l-119 -750h80l92 581l177 -581h91z" />
    <glyph glyph-name="o" unicode="o" 
d="M587 659q6 34 -13.5 62.5t-65.5 28.5h-248q-45 0 -74 -29t-34 -62l-90 -568q-5 -34 14.5 -62.5t64.5 -28.5h248q46 0 74.5 28t33.5 63zM469 676q24 0 31 -10t3 -34l-82 -516q-3 -23 -13.5 -33.5t-34.5 -10.5h-192q-24 0 -31 10t-4 34l82 516q4 24 14 34t35 10h192z" />
    <glyph glyph-name="p" unicode="p" horiz-adv-x="506" 
d="M484 750h-317l-119 -750h80l46 293h237q45 0 73.5 28t34.5 62l43 276q5 34 -14 62.5t-64 28.5zM478 632l-35 -223q-4 -24 -14 -34.5t-34 -10.5h-209l49 312h209q24 0 31 -10t3 -34z" />
    <glyph glyph-name="q" unicode="q" 
d="M587 659q6 34 -13.5 62.5t-65.5 28.5h-248q-45 0 -74 -29t-34 -62l-90 -568q-5 -34 14.5 -62.5t64.5 -28.5l177 1l28 -96h86l-29 96q39 4 64.5 31.5t29.5 58.5zM382 73l-22 74h-84l21 -75h-116q-24 0 -31 10t-4 34l82 516q4 24 14 34t35 10h192q24 0 31 -10t3 -34
l-82 -516q-3 -21 -11.5 -31t-27.5 -12z" />
    <glyph glyph-name="r" unicode="r" horiz-adv-x="540" 
d="M516 750h-349l-119 -750h80l51 322h241q43 0 35 -42l-44 -280h79l46 293q8 44 -21 66q36 22 42 66l37 234q6 35 -13 63t-65 28zM511 632l-31 -195q-6 -43 -49 -43h-241l45 282h241q25 0 32 -10t3 -34z" />
    <glyph glyph-name="s" unicode="s" 
d="M587 659q6 34 -13.5 62.5t-65.5 28.5h-248q-45 0 -74 -29t-34 -62l-36 -229q-5 -33 14.5 -61.5t64.5 -28.5h221q24 0 31 -10t3 -34l-29 -180q-3 -23 -13.5 -33.5t-34.5 -10.5h-192q-24 0 -31 10t-4 34l26 162h-80l-30 -187q-5 -34 14.5 -62.5t64.5 -28.5h248
q46 0 74.5 28t33.5 63l37 230q5 34 -15 62.5t-65 28.5h-219q-25 0 -32 10t-3 34l28 176q4 24 14 34t35 10h192q24 0 31 -10t3 -34l-23 -146h80z" />
    <glyph glyph-name="t" unicode="t" horiz-adv-x="541" 
d="M417 676h182l12 74h-444l-12 -74h181l-107 -676h81z" />
    <glyph glyph-name="u" unicode="u" horiz-adv-x="531" 
d="M497 91l105 659h-80l-101 -634q-3 -23 -13.5 -33.5t-35.5 -10.5h-192q-24 0 -30.5 10t-3.5 34l101 634h-80l-105 -659q-5 -35 14.5 -63t64.5 -28h248q45 0 74 28.5t34 62.5z" />
    <glyph glyph-name="v" unicode="v" horiz-adv-x="617" 
d="M350 0l337 750h-84l-276 -625l-76 625h-84l99 -750h84z" />
    <glyph glyph-name="w" unicode="w" horiz-adv-x="798" 
d="M616 0l252 750h-83l-197 -599l-34 599h-72l-225 -601l-6 601h-84l14 -750h97l210 561l31 -561h97z" />
    <glyph glyph-name="x" unicode="x" horiz-adv-x="553" 
d="M506 0l-121 375l240 375h-88l-188 -296l-94 296h-88l121 -375l-240 -375h88l188 295l94 -295h88z" />
    <glyph glyph-name="y" unicode="y" horiz-adv-x="628" 
d="M276 0l2 11l33 209l-144 530h86l113 -427l245 427h88l-310 -526l-33 -213l-2 -11h-78z" />
    <glyph glyph-name="z" unicode="z" horiz-adv-x="547" 
d="M602 676h4l12 74h-446l-12 -74h348l-449 -608l-11 -68h450l11 72h-357z" />
    <glyph glyph-name="braceleft" unicode="{" horiz-adv-x="315" 
d="M246 310q7 43 -22 67q37 22 43 65l30 190q4 28 15.5 36t46.5 8h13l12 74h-55q-45 0 -74 -28.5t-34 -62.5l-32 -204q-4 -26 -17 -34.5t-46 -8.5h-13l-11 -72h13q33 0 43 -8.5t6 -34.5l-33 -206q-5 -34 14.5 -62.5t64.5 -28.5h55l11 72h-13q-34 0 -43 8t-5 36z" />
    <glyph glyph-name="braceright" unicode="}" horiz-adv-x="315" 
d="M319 340l11 72h-13q-33 0 -42.5 8.5t-5.5 34.5l32 204q5 33 -14.5 62t-63.5 29h-56l-12 -74h13q34 0 43 -8t5 -36l-30 -190q-6 -45 23 -65q-36 -23 -44 -67l-31 -194q-4 -27 -16 -35.5t-46 -8.5h-13l-11 -72h56q44 0 73 28.5t34 62.5l33 206q4 27 16.5 35t45.5 8h13z" />
    <glyph glyph-name="cent" unicode="&#xa2;" horiz-adv-x="474" 
d="M422 473l-6 -28l-1 -9h80l10 61q5 35 -14.5 63t-64.5 28h-52l14 89h-80l-14 -89h-60q-45 0 -73.5 -28.5t-33.5 -62.5l-37 -232q-5 -33 14.5 -62t64.5 -29h60l-15 -89h80l15 89h52q45 0 73.5 28.5t33.5 62.5l10 62h-80l-2 -11l-3 -27l-8 -24q-10 -19 -41 -19h-135
q-25 0 -32 10.5t-3 34.5l29 181q4 24 14.5 34t34.5 10h135q30 0 35 -20v-23z" />
    <glyph glyph-name="sterling" unicode="&#xa3;" horiz-adv-x="508" 
d="M463 11l11 72h-261q3 9 5 18l38 239h160l11 72h-160l35 220q4 24 14 34t33 10h161l12 74h-186q-46 0 -75.5 -28t-35.5 -63l-39 -247h-56l-11 -72h56l-34 -213q-4 -29 -16.5 -36.5t-50.5 -7.5h-13l-11 -72h413z" />
    <glyph glyph-name="yen" unicode="&#xa5;" horiz-adv-x="628" 
d="M572 239h-173l46 76h137l10 66h-109l218 369h-88l-247 -427l-111 427h-88l101 -369h-108l-10 -66h134l23 -76h-169l-11 -67h176l-27 -172h78l27 172h180z" />
    <glyph glyph-name="copyright" unicode="&#xa9;" horiz-adv-x="693" 
d="M645 656q0 35 -24 63t-70 28l-410 3q-45 0 -69 -29t-24 -62v-568q0 -34 24 -62.5t69 -28.5l410 -3q46 0 70 28t24 63v568zM524 673q24 0 32.5 -10t8.5 -34v-516q0 -24 -8.5 -34t-32.5 -10l-354 3q-24 0 -33 10t-9 34v516q0 24 8.5 34t33.5 10zM470 532q0 19 -13.5 35
t-38.5 16h-142q-25 0 -38.5 -16.5t-13.5 -34.5v-318q0 -19 13.5 -35t38.5 -16h142q25 0 38.5 16t13.5 35v100h-45v-86q0 -14 -4.5 -19.5t-18.5 -5.5h-109q-24 0 -24 25v289q0 13 5 18.5t19 5.5h109q14 0 18.5 -5.5t4.5 -18.5v-86h45v101z" />
    <glyph glyph-name="registered" unicode="&#xae;" horiz-adv-x="693" 
d="M645 656q0 35 -24 63t-70 28l-410 3q-45 0 -69 -29t-24 -62v-568q0 -34 24 -62.5t69 -28.5l410 -3q46 0 70 28t24 63v568zM524 673q24 0 32.5 -10t8.5 -34v-516q0 -24 -8.5 -34t-32.5 -10l-354 3q-24 0 -33 10t-9 34v516q0 24 8.5 34t33.5 10zM416 578h-189v-406h44v174
h130q23 0 23 -22v-152h43v159q0 23 -18 35q18 12 18 36v127q0 18 -13 33.5t-38 15.5zM424 514v-105q0 -24 -23 -24h-130v153h130q14 0 18.5 -5.5t4.5 -18.5z" />
    <glyph glyph-name="degree" unicode="&#xb0;" horiz-adv-x="333" 
d="M137 565q-3 -22 9.5 -42t42.5 -20h113q30 0 49 20.5t22 41.5l20 122q3 21 -9.5 42t-42.5 21h-113q-30 0 -49 -21t-22 -42zM310 584q-3 -18 -18 -18h-74q-16 0 -13 18l14 84q3 20 18 20h74q16 0 13 -20z" />
    <glyph glyph-name="multiply" unicode="&#xd7;" horiz-adv-x="486" 
d="M297 326l118 -145l60 53l-118 145l163 145l-44 53l-162 -144l-121 144l-59 -53l119 -144l-168 -148l44 -53z" />
    <glyph glyph-name="divide" unicode="&#xf7;" horiz-adv-x="503" 
d="M289 538q-2 -16 7 -30t31 -14q25 0 40 13t17 31l1 8q3 15 -7 29t-32 14q-24 0 -38.5 -12.5t-17.5 -30.5zM519 412h-406l-11 -72h406zM238 177q9 -19 36 -19q49 0 57 43q2 19 -1 31q-10 19 -37 19q-25 0 -39.5 -12.5t-16.5 -30.5q-2 -20 1 -31z" />
    <glyph glyph-name="gravecomb" unicode="&#x300;" horiz-adv-x="0" 
d="M-86 858l80 -101h78l-73 101h-85z" />
    <glyph glyph-name="acutecomb" unicode="&#x301;" horiz-adv-x="0" 
d="M89 858h-84l-105 -101h77z" />
    <glyph glyph-name="uni0302" unicode="&#x302;" horiz-adv-x="0" 
d="M-47 805l34 -48h87l-81 101h-63l-113 -101h85z" />
    <glyph glyph-name="tildecomb" unicode="&#x303;" horiz-adv-x="0" 
d="M-68 843q-20 9 -34 9q-20 0 -53 -21q-3 -2 -10 -7.5t-12 -7.5q-10 -10 -15 -13l-8 -5l29 -48l13 9q3 1 25 19q13 7 17 9q0 1 2 2t3 1q4 -1 10 -5q1 -1 23 -14q13 -9 26 -15q20 -9 32 -9q22 0 54 21q8 5 20 15t16 12l9 6l-29 49l-14 -10q-9 -9 -26 -19q-5 -4 -15 -10
q-2 -2 -5 -2h-3q-1 0 -2 1t-2.5 2t-2.5 2q-12 7 -22 14q-8 6 -26 15z" />
    <glyph glyph-name="uni0307" unicode="&#x307;" horiz-adv-x="0" 
d="M5 780q7 -15 29 -15q19 0 30.5 10.5t14.5 24.5q2 14 -3 23q-4 16 -27 16q-19 0 -31 -10t-15 -24q-2 -13 2 -25z" />
    <glyph glyph-name="uni0308" unicode="&#x308;" horiz-adv-x="0" 
d="M-113 780q7 -15 29 -15q19 0 30.5 10.5t14.5 24.5q2 14 -3 23q-5 16 -27 16q-19 0 -31 -10t-15 -24q-2 -13 2 -25zM4 780q8 -15 29 -15q19 0 30.5 10.5t14.5 24.5q2 14 -2 23q-4 16 -28 16q-19 0 -31 -10t-15 -24q-2 -13 2 -25z" />
    <glyph glyph-name="uni030A" unicode="&#x30a;" horiz-adv-x="0" 
d="M-38 776q-2 -10 5 -21t25 -11h44q17 0 27 10.5t12 21.5l8 50q2 11 -5 21.5t-24 10.5h-44q-34 0 -40 -32zM13 789l3 25h15l-4 -25h-14z" />
    <glyph glyph-name="uni0327" unicode="&#x327;" horiz-adv-x="0" 
d="M-177 -88q-32 0 -44 3l-12 3l-33 -53l10 -4q19 -10 59 -10h45q79 0 90 69l3 15q6 37 -28 49q-13 5 -31 5q-4 1 -13 1l26 36h-80l-4 -7l-3 -3q-2 -4 -5.5 -9t-6.5 -9q-4 -8 -11 -14q0 -1 -1 -2v-2q-4 -3 -4 -7l-7 -40h85h8q1 0 2 -1h1q0 -2 -1 -5q-1 -11 -3.5 -13
t-14.5 -2h-27z" />
    <glyph glyph-name="quoteleft" unicode="&#x2018;" horiz-adv-x="222" 
d="M131 522h82l82 229h-76z" />
    <glyph glyph-name="quoteright" unicode="&#x2019;" horiz-adv-x="224" 
d="M295 752h-83l-81 -229h74z" />
    <glyph glyph-name="quotedblleft" unicode="&#x201c;" horiz-adv-x="338" 
d="M131 522h82l79 229h-73zM245 522h83l81 229h-76z" />
    <glyph glyph-name="quotedblright" unicode="&#x201d;" horiz-adv-x="338" 
d="M295 752h-83l-81 -229h74zM409 752h-82l-82 -229h75z" />
    <glyph glyph-name="bullet" unicode="&#x2022;" horiz-adv-x="190" 
d="M102 340q-3 -16 6.5 -30t33.5 -14q46 0 54 44l1 7q2 16 -6 29.5t-31 13.5q-24 0 -39.5 -12.5t-17.5 -30.5z" />
    <glyph glyph-name="Euro" unicode="&#x20ac;" horiz-adv-x="581" 
d="M555 635q-4 -20 -5 -28l-2 -11h78l10 63q5 33 -14.5 62t-63.5 29h-251q-46 0 -74.5 -28.5t-33.5 -62.5l-29 -183h-47l-10 -67h47l-11 -66h-47l-10 -68h47l-30 -184q-5 -35 14 -63t65 -28h251q44 0 73 28.5t34 62.5l10 61h-78l-1 -9q-1 -4 -2.5 -13.5t-2.5 -14.5
q-4 -18 -7 -23q-13 -20 -44 -20h-194q-25 0 -32 10t-4 34l26 159h246l10 68h-246l11 66h246l10 67h-246l25 156q4 24 14.5 34t35.5 10h194q32 0 37 -19q1 -3 1 -22z" />
    <glyph glyph-name="trademark" unicode="&#x2122;" horiz-adv-x="693" 
d="M207 712h95v38h-232v-38h95v-354h42v354zM594 358h41v392h-54l-97 -321l-96 321h-54v-392h42v298l89 -298h39l90 300v-300z" />
    <glyph glyph-name="minus" unicode="&#x2212;" horiz-adv-x="487" 
d="M491 333l12 76h-390l-12 -76h390z" />
    <glyph glyph-name="_FSHallmark" horiz-adv-x="921" 
d="M43 642h838v-79h-838v79zM772 413q0 9 -7 18q-4 4 -18 14l-24 9q-20 2 -24 2q-27 0 -48 -10t-21 -23q0 -25 18 -33q19 -9 45 -14l36 -7l31 -6q16 -4 29 -5q14 -1 26 -6q3 -2 10.5 -4.5l10.5 -3.5q19 -9 32 -22q9 -15 12 -36q2 -21 -11 -40q-26 -34 -73 -47
q-54 -13 -96 -13q-37 0 -68 8q-29 7 -58 22q-26 14 -43 38q-16 22 -16 53l97 -1q0 -2 4 -12q3 -14 15 -21q11 -9 25 -14q16 -8 48 -8q34 0 53 10q20 7 20 20q0 25 -80 38q-74 15 -122 36q-51 20 -51 67q0 38 34 60q33 22 73 32q29 7 69 7q44 0 96 -15q45 -16 66 -53
q11 -22 11 -40h-101zM153 186h-110v334h352v-76h-242v-75h201v-74h-201v-109zM386 227q0 17 15 29q13 10 36 10t39 -12q16 -10 16 -27q0 -16 -16 -28q-17 -11 -39 -11q-20 0 -35 12q-16 12 -16 27zM40 145h840v-80h-840v80z" />
    <glyph glyph-name="_Fontastica" horiz-adv-x="784" 
d="M157 120h-116q-1 1 -1 5v543h508v-83h-391v-224h393v-84h-393v-157zM230 512h394v156h116v-547h-510v83h394v224h-394v84zM624 67q-6 -3 -6 -8q0 -8 5 -12q4 -4 12 -4q10 0 19 4l5 -4q-7 -10 -24 -10q-11 0 -21 5q-8 10 -10 17q-1 10 8 18q10 9 23 9t24 -9l-5 -6l-7 4
q-1 1 -9 1h-3q-7 -2 -11 -5zM41 81h43v-9h-28v-12h27v-8h-27v-18h-15v47zM137 81q20 0 29 -13q10 -8 3 -21q-6 -13 -25 -14l-8 -2q-9 0 -12 3q-19 6 -19 20q0 12 9 19q8 8 23 8zM250 34h-4q-1 -1 -4 -1q-2 0 -9 5q-1 1 -3 3.5t-2 3.5l-6 6q-2 2 -4.5 5t-4.5 4.5t-3 2.5v-29
h-13v47h11q4 -1 6 -6q2 -2 7 -6t7 -6q8 -12 10 -14v32h12v-47zM276 81h49v-9h-19v-38h-12v38h-18v9zM458 59q12 -3 12 -11q2 -10 -11 -14q-1 -1 -10 -1q-20 0 -28 7q1 2 1 3l1 1q0 2 2 3l18 -4h8q4 3 4 2q0 8 -13 9q-1 0 -3 1q-1 1 -5 1q-9 1 -9 11q-3 7 8 12q8 2 13 2
q15 0 24 -4l-5 -9q-2 1 -4 1t-3 1t-4 1q-1 0 -3 1h-8q-4 0 -4 -3q-2 -2 4 -6q5 -1 15 -4zM490 81h50v-9h-18v-38h-14v38h-18v9zM564 81h15v-47h-15v47zM719 81l12 -22q0 -2 6 -13q5 -10 7 -12h-13l-6 10h-28l-5 -10h-13q14 23 24 47h16zM375 79l3 -5q2 -4 4 -6q3 -3 7 -11
q0 -1 2 -5l3 -6t3 -6.5t2 -5.5h-13q-1 1 -1 4l-1 1l-2 5h-27q-1 -1 -1 -6q-1 -1 -1 -2l-3 -2h-12l24 45h13zM154 57q0 7 -4 11q-5 4 -14 4q-2 -1 -4 -1q-5 -1 -11 -7q-7 -6 -1 -12q3 -10 17 -10q4 0 5 1q12 1 12 13v1zM378 52l-1 1q-1 2 -2 3q-1 0 -1 2t-1 3q-2 1 -2 4
q-1 1 -1 2t-1 2l-11 -17h20zM720 52q-1 1 -1 4q-1 1 -2 3l-1 2l-1 1q-1 2 -2 3t-1 2t-1 2l-10 -17h19z" />
    </font>
</defs>
</svg>
